<svg width="27" height="32" viewBox="0 0 27 32" fill="none" xmlns="http://www.w3.org/2000/svg">
<path d="M14.1951 30.7892L14.1977 30.7874L14.2061 30.7819L14.2347 30.7625C14.259 30.7459 14.2938 30.7222 14.3382 30.6915C14.4269 30.63 14.5545 30.5404 14.7154 30.4242C15.0369 30.192 15.4922 29.853 16.0366 29.4195C17.1235 28.554 18.5759 27.3037 20.0326 25.7661C22.8948 22.7448 26.0002 18.3776 26.0002 13.5001C26.0002 10.1849 24.6832 7.00541 22.339 4.66119C19.9948 2.31697 16.8153 1 13.5001 1C10.1849 1 7.00542 2.31697 4.66119 4.66119C2.31697 7.00542 1 10.1849 1 13.5001C1 18.3776 4.10535 22.7448 6.9676 25.7661C8.42429 27.3037 9.87673 28.554 10.9636 29.4195C11.508 29.853 11.9633 30.192 12.2848 30.4242C12.4457 30.5404 12.5732 30.63 12.662 30.6915C12.7064 30.7222 12.7411 30.7459 12.7655 30.7625L12.7941 30.7819L12.8025 30.7874L12.806 30.7898C13.2259 31.0698 13.7736 31.0702 14.1935 30.7903M13.5001 8.50006C10.7386 8.50006 8.50006 10.7386 8.50006 13.5001C8.50006 16.2615 10.7386 18.5001 13.5001 18.5001C16.2615 18.5001 18.5001 16.2615 18.5001 13.5001C18.5001 10.7386 16.2615 8.50006 13.5001 8.50006Z" stroke="#EC2028" stroke-width="2" stroke-linecap="round" stroke-linejoin="round"/>
</svg>
