<svg width="20" height="26" viewBox="0 0 20 26" fill="none" xmlns="http://www.w3.org/2000/svg">
<path fill-rule="evenodd" clip-rule="evenodd" d="M4.18595 5.30472C5.65081 5.30472 6.83831 4.11722 6.83831 2.65236C6.83831 1.1875 5.65081 0 4.18595 0C2.72109 0 1.53359 1.1875 1.53359 2.65236C1.53359 4.11722 2.72109 5.30472 4.18595 5.30472ZM4.44957 5.44679C5.59184 5.10411 6.79562 5.7523 7.1383 6.89456L9.12757 13.5255L9.14199 13.5735L9.15416 13.6222C9.18484 13.7449 9.22932 13.8831 9.28841 14.0148C9.34818 14.148 9.41005 14.2459 9.46413 14.3108C9.51479 14.3716 9.54658 14.3896 9.55649 14.3946L9.55683 14.3948C9.56148 14.3972 9.60058 14.418 9.71168 14.418H14.3533C15.3475 14.418 16.1848 15.0899 16.4358 16.0044C16.7648 16.3922 17.0412 16.8565 17.3066 17.321L17.3487 17.3946L17.3829 17.4722L19.8142 22.998C20.1744 23.8167 19.8028 24.7724 18.9841 25.1326C18.1654 25.4928 17.2097 25.1211 16.8495 24.3025L14.4529 18.8557C14.4289 18.814 14.4058 18.7743 14.3835 18.7364L14.3533 18.7366H9.71168C8.09439 18.7366 6.90814 17.9895 6.14646 17.0755C5.4629 16.2552 5.13496 15.33 4.97801 14.7229L3.0018 8.13551C2.65912 6.99325 3.30731 5.78947 4.44957 5.44679ZM2.13174 7.66794C1.97215 7.09342 1.37703 6.75705 0.802504 6.91664C0.227979 7.07623 -0.108393 7.67135 0.0511976 8.24587L2.2615 16.203L2.26884 16.2294L2.27751 16.2554C3.00849 18.4483 5.05965 21.4142 8.82752 21.4142C9.18464 21.4142 9.56673 21.4212 9.97855 21.4286C10.9117 21.4455 11.9975 21.4651 13.2913 21.4134C13.8871 21.3896 14.3507 20.8872 14.3269 20.2914C14.3031 19.6956 13.8008 19.232 13.205 19.2558C11.9729 19.3051 11.0023 19.2872 10.0974 19.2705H10.0974H10.0973H10.0972C9.66613 19.2626 9.24995 19.2549 8.82752 19.2549C6.41785 19.2549 4.93512 17.3759 4.33442 15.5976L2.13174 7.66794Z" fill="#999999"/>
</svg>
