<svg width="25" height="25" viewBox="0 0 25 25" fill="none" xmlns="http://www.w3.org/2000/svg">
<path fill-rule="evenodd" clip-rule="evenodd" d="M12.5 22.7273C18.1484 22.7273 22.7273 18.1484 22.7273 12.5C22.7273 6.85163 18.1484 2.27273 12.5 2.27272C6.85164 2.27272 2.27273 6.85163 2.27273 12.5C2.27273 18.1484 6.85163 22.7273 12.5 22.7273ZM25 12.5C25 19.4036 19.4036 25 12.5 25C5.59644 25 4.89256e-07 19.4036 1.09278e-06 12.5C1.69631e-06 5.59644 5.59644 -1.69631e-06 12.5 -1.09278e-06C19.4036 -4.89256e-07 25 5.59644 25 12.5Z" fill="white"/>
<path d="M11.6965 17.849C12.1402 18.2928 12.8598 18.2928 13.3035 17.849L17.849 13.3035C18.2928 12.8598 18.2928 12.1402 17.849 11.6965C17.4052 11.2527 16.6857 11.2527 16.2419 11.6965L13.6364 14.302L13.6364 7.95454C13.6364 7.32695 13.1276 6.81818 12.5 6.81818C11.8724 6.81818 11.3636 7.32695 11.3636 7.95454L11.3636 14.302L8.75808 11.6965C8.3143 11.2527 7.59479 11.2527 7.15102 11.6965C6.70724 12.1402 6.70724 12.8598 7.15102 13.3035L11.6965 17.849Z" fill="white"/>
</svg>
