<svg width="30" height="30" viewBox="0 0 30 30" fill="none" xmlns="http://www.w3.org/2000/svg">
<path fill-rule="evenodd" clip-rule="evenodd" d="M15 30C23.2843 30 30 23.2843 30 15C30 6.71573 23.2843 0 15 0C6.71573 0 0 6.71573 0 15C0 23.2843 6.71573 30 15 30ZM17.9016 9.54037C17.9016 10.8428 17.0287 11.9413 15.836 12.2829V14.0651H21.7377V12.2528C20.5956 11.8804 19.7704 10.8067 19.7704 9.54037C19.7704 7.965 21.0475 6.68791 22.6229 6.68791C24.1982 6.68791 25.4753 7.965 25.4753 9.54037C25.4753 10.8428 24.6025 11.9413 23.4098 12.2829V14.8518H23.4098V15.7372H15.836V17.5196C17.0287 17.8611 17.9016 18.9597 17.9016 20.2621C17.9016 21.8374 16.6245 23.1145 15.0491 23.1145C13.4737 23.1145 12.1966 21.8374 12.1966 20.2621C12.1966 18.9957 13.0219 17.9221 14.1639 17.5496V15.7372H8.16385V17.5496C9.30587 17.9221 10.1311 18.9957 10.1311 20.2621C10.1311 21.8374 8.854 23.1145 7.27863 23.1145C5.70326 23.1145 4.42617 21.8374 4.42617 20.2621C4.42617 18.9597 5.29905 17.8611 6.49172 17.5195V12.2832C5.29908 11.9416 4.42622 10.843 4.42622 9.54065C4.42622 7.96528 5.70331 6.68819 7.27868 6.68819C8.85405 6.68819 10.1311 7.96528 10.1311 9.54065C10.1311 10.807 9.3059 11.8807 8.16385 12.2531V14.0651H14.1639V12.2528C13.0219 11.8804 12.1966 10.8067 12.1966 9.54037C12.1966 7.965 13.4737 6.68791 15.0491 6.68791C16.6245 6.68791 17.9016 7.965 17.9016 9.54037ZM25.4753 20.2621C25.4753 21.8374 24.1982 23.1145 22.6229 23.1145C21.0475 23.1145 19.7704 21.8374 19.7704 20.2621C19.7704 18.6867 21.0475 17.4096 22.6229 17.4096C24.1982 17.4096 25.4753 18.6867 25.4753 20.2621Z" fill="#999999"/>
<path d="M7.76398 8.08864V11.3936H6.99913V8.70241H6.33814V8.08864H7.76398Z" fill="#999999"/>
<path d="M8.58886 21.3768V22H6.09129V21.5043L7.36604 20.3003C7.50139 20.1713 7.59266 20.0611 7.63988 19.9698C7.68709 19.8754 7.7107 19.7826 7.7107 19.6913C7.7107 19.5591 7.66506 19.4584 7.57378 19.3891C7.48565 19.3167 7.35502 19.2805 7.18191 19.2805C7.03712 19.2805 6.9065 19.3089 6.79004 19.3655C6.67358 19.419 6.57601 19.5009 6.49732 19.611L5.94021 19.2522C6.06925 19.0602 6.24709 18.9107 6.47371 18.8037C6.70034 18.6935 6.96001 18.6384 7.25273 18.6384C7.49824 18.6384 7.71227 18.6793 7.89483 18.7612C8.08053 18.8399 8.22375 18.9532 8.32447 19.1011C8.42834 19.2459 8.48027 19.4174 8.48027 19.6157C8.48027 19.7951 8.4425 19.9635 8.36696 20.1209C8.29142 20.2783 8.14506 20.4577 7.92788 20.6591L7.16775 21.3768H8.58886Z" fill="#999999"/>
<path d="M15.4293 9.43421C15.7189 9.48142 15.9408 9.59001 16.095 9.75998C16.2493 9.9268 16.3264 10.1345 16.3264 10.3832C16.3264 10.5752 16.276 10.753 16.1753 10.9167C16.0746 11.0772 15.9203 11.2063 15.7126 11.3038C15.508 11.4014 15.2562 11.4502 14.9572 11.4502C14.7243 11.4502 14.4945 11.4203 14.2679 11.3605C14.0444 11.2976 13.854 11.2094 13.6966 11.0961L13.994 10.5107C14.1199 10.6051 14.2647 10.6791 14.4284 10.7326C14.5952 10.7829 14.7652 10.8081 14.9383 10.8081C15.1303 10.8081 15.2814 10.7719 15.3915 10.6995C15.5017 10.624 15.5568 10.5185 15.5568 10.3832C15.5568 10.1125 15.3506 9.97716 14.9383 9.97716H14.5889V9.47198L15.2688 8.70241H13.8618V8.08864H16.1753V8.58437L15.4293 9.43421Z" fill="#999999"/>
<path d="M16.4354 21.306H15.8972V22H15.1512V21.306H13.3713V20.7913L14.9293 18.6951H15.7319L14.2872 20.6828H15.1748V20.0643H15.8972V20.6828H16.4354V21.306Z" fill="#999999"/>
<path d="M22.7821 9.33034C23.2479 9.33034 23.591 9.42319 23.8113 9.6089C24.0348 9.7946 24.1466 10.0433 24.1466 10.3549C24.1466 10.5563 24.0962 10.7404 23.9955 10.9073C23.8948 11.0709 23.7405 11.2031 23.5328 11.3038C23.3282 11.4014 23.0748 11.4502 22.7727 11.4502C22.5397 11.4502 22.31 11.4203 22.0833 11.3605C21.8599 11.2976 21.6694 11.2094 21.5121 11.0961L21.8142 10.5107C21.9401 10.6051 22.0849 10.6791 22.2486 10.7326C22.4123 10.7829 22.5807 10.8081 22.7538 10.8081C22.9458 10.8081 23.0969 10.7703 23.207 10.6948C23.3172 10.6193 23.3723 10.5138 23.3723 10.3785C23.3723 10.2368 23.314 10.1298 23.1976 10.0574C23.0843 9.98503 22.886 9.94883 22.6027 9.94883H21.7576L21.9275 8.08864H23.9435V8.70241H22.5649L22.513 9.33034H22.7821Z" fill="#999999"/>
<path d="M23.483 22L22.8456 21.0793H22.8078H22.1421V22H21.3773V18.6951H22.8078C23.1005 18.6951 23.3539 18.7439 23.5679 18.8414C23.7851 18.939 23.9519 19.0775 24.0684 19.2569C24.1849 19.4363 24.2431 19.6488 24.2431 19.8943C24.2431 20.1398 24.1833 20.3523 24.0637 20.5317C23.9472 20.7079 23.7804 20.8433 23.5632 20.9377L24.3045 22H23.483ZM23.4688 19.8943C23.4688 19.7086 23.409 19.567 23.2894 19.4694C23.1698 19.3687 22.9951 19.3183 22.7653 19.3183H22.1421V20.4703H22.7653C22.9951 20.4703 23.1698 20.4199 23.2894 20.3192C23.409 20.2185 23.4688 20.0769 23.4688 19.8943Z" fill="#999999"/>
</svg>
