<svg xmlns="http://www.w3.org/2000/svg" viewBox="0 0 160 160"><defs><style>.cls-1{fill:#ec2028;}.cls-2,.cls-3,.cls-4{fill:#fff;}.cls-3,.cls-4{font-size:11.49px;letter-spacing:0.3em;}.cls-3{font-family:CenturyGothic-Bold, Century Gothic;font-weight:700;}.cls-4{font-family:CenturyGothic, Century Gothic;}</style></defs><title>Icon ARA Red</title><g id="Logo-2" data-name="Logo"><g id="Logo_Red" data-name="Logo Red"><rect class="cls-1" y="0.5" width="160" height="160"/><path class="cls-2" d="M151.12,9.71V150.62H10.21V9.71H151.12m4.55-4.54H5.67v150h150V5.17Z"/><polygon class="cls-2" points="23.84 106.75 17.5 106.75 42.84 48.58 64.16 98.11 57.82 98.11 42.84 62.4 23.84 106.75"/><polygon class="cls-2" points="58.97 101.56 61.28 106.17 67.61 106.17 65.31 101.56 58.97 101.56"/><polygon class="cls-2" points="134.42 101.56 136.73 106.17 143.06 106.17 140.76 101.56 134.42 101.56"/><path class="cls-2" d="M99.29,106.75H91.23L74,75.65H67.61V69.31H80.28s9.22-1.73,9.22-11.52c0-9.21-8.64-11.52-8.64-11.52H57.24l-4-6.33H80.86c18.43,4.61,21.88,28.22.57,35.71L95.67,100.5,118.3,48.58l21.31,49.53h-6.34l-15-35.71-19,44.35"/><rect class="cls-2" x="60.12" y="69.31" width="5.76" height="6.34"/><polygon class="cls-2" points="26.72 117.69 29.02 114.24 20.96 117.69 29.02 121.15 26.72 117.69"/><text class="cls-3" transform="translate(33.92 122.3)">CAR RENTAL</text><polygon class="cls-2" points="139.03 117.69 136.73 121.15 144.79 117.69 136.73 114.24 139.03 117.69"/><text class="cls-4" transform="translate(135.92 26.3)">R</text><path class="cls-2" d="M139.17,30A7.88,7.88,0,1,1,147,22.17,7.88,7.88,0,0,1,139.17,30Zm0-15a7.13,7.13,0,1,0,7.12,7.13A7.14,7.14,0,0,0,139.17,15Z"/></g></g></svg>