<?xml version="1.0" encoding="utf-8"?>
<!-- Generator: Adobe Illustrator 23.0.2, SVG Export Plug-In . SVG Version: 6.00 Build 0)  -->
<svg version="1.1" id="Layer_1" xmlns="http://www.w3.org/2000/svg" xmlns:xlink="http://www.w3.org/1999/xlink" x="0px" y="0px"
	 viewBox="0 0 27 32" style="enable-background:new 0 0 27 32;" xml:space="preserve">
<style type="text/css">
	.st0{fill:none;stroke:#999999;stroke-width:2;stroke-linecap:round;stroke-linejoin:round;}
</style>
<path class="st0" d="M14.2,30.8L14.2,30.8L14.2,30.8L14.2,30.8c0.1,0,0.1-0.1,0.1-0.1c0.1-0.1,0.2-0.2,0.4-0.3
	c0.3-0.2,0.8-0.6,1.3-1c1.1-0.9,2.5-2.1,4-3.7c2.9-3,6-7.4,6-12.3c0-3.3-1.3-6.5-3.7-8.8S16.8,1,13.5,1S7,2.3,4.7,4.7
	C2.3,7,1,10.2,1,13.5c0,4.9,3.1,9.2,6,12.3c1.5,1.5,2.9,2.8,4,3.7c0.5,0.4,1,0.8,1.3,1c0.2,0.1,0.3,0.2,0.4,0.3c0,0,0.1,0.1,0.1,0.1
	l0,0l0,0l0,0C13.2,31.1,13.8,31.1,14.2,30.8 M13.5,8.5c-2.8,0-5,2.2-5,5c0,2.8,2.2,5,5,5c2.8,0,5-2.2,5-5
	C18.5,10.7,16.3,8.5,13.5,8.5z"/>
</svg>
