<?xml version="1.0" encoding="utf-8"?>
<!-- Generator: Adobe Illustrator 23.0.2, SVG Export Plug-In . SVG Version: 6.00 Build 0)  -->
<svg version="1.1" id="Layer_1" xmlns="http://www.w3.org/2000/svg" xmlns:xlink="http://www.w3.org/1999/xlink" x="0px" y="0px"
	 viewBox="0 0 20 14" style="enable-background:new 0 0 20 14;" xml:space="preserve">
<style type="text/css">
	.st0{fill-rule:evenodd;clip-rule:evenodd;fill:#999999;}
</style>
<path class="st0" d="M0,7c0-0.6,0.4-1,1-1h18c0.6,0,1,0.4,1,1s-0.4,1-1,1H1C0.4,8,0,7.6,0,7z"/>
<path class="st0" d="M0,1c0-0.6,0.4-1,1-1h18c0.6,0,1,0.4,1,1s-0.4,1-1,1H1C0.4,2,0,1.6,0,1z"/>
<path class="st0" d="M0,13c0-0.6,0.4-1,1-1h18c0.6,0,1,0.4,1,1s-0.4,1-1,1H1C0.4,14,0,13.6,0,13z"/>
</svg>
