<svg width="25" height="25" viewBox="0 0 25 25" fill="none" xmlns="http://www.w3.org/2000/svg">
<path fill-rule="evenodd" clip-rule="evenodd" d="M12.5 2.27273C6.85163 2.27273 2.27273 6.85163 2.27273 12.5C2.27273 18.1484 6.85163 22.7273 12.5 22.7273C18.1484 22.7273 22.7273 18.1484 22.7273 12.5C22.7273 6.85163 18.1484 2.27273 12.5 2.27273ZM0 12.5C0 5.59644 5.59644 0 12.5 0C19.4036 0 25 5.59644 25 12.5C25 19.4036 19.4036 25 12.5 25C5.59644 25 0 19.4036 0 12.5Z" fill="white"/>
<path d="M13.3035 7.15101C12.8598 6.70724 12.1402 6.70724 11.6965 7.15101L7.15101 11.6965C6.70724 12.1402 6.70724 12.8598 7.15101 13.3035C7.59479 13.7473 8.3143 13.7473 8.75808 13.3035L11.3636 10.698V17.0455C11.3636 17.6731 11.8724 18.1818 12.5 18.1818C13.1276 18.1818 13.6364 17.6731 13.6364 17.0455V10.698L16.2419 13.3035C16.6857 13.7473 17.4052 13.7473 17.849 13.3035C18.2928 12.8598 18.2928 12.1402 17.849 11.6965L13.3035 7.15101Z" fill="white"/>
</svg>
