<svg width="30" height="29" viewBox="0 0 30 29" fill="none" xmlns="http://www.w3.org/2000/svg">
<path d="M11.8342 7.68631C11.916 7.68637 11.997 7.66979 12.0725 7.63755C12.1481 7.60531 12.2167 7.55803 12.2745 7.49842L13.5203 6.21697C13.6311 6.09563 13.6916 5.93473 13.689 5.76832C13.6865 5.60191 13.6211 5.44305 13.5066 5.32536C13.3922 5.20768 13.2378 5.1404 13.076 5.13778C12.9142 5.13515 12.7578 5.19738 12.6398 5.31129L11.3939 6.59274C11.3069 6.68235 11.2476 6.79648 11.2236 6.92071C11.1996 7.04494 11.212 7.1737 11.2591 7.29072C11.3062 7.40774 11.386 7.50778 11.4883 7.57819C11.5907 7.6486 11.711 7.68622 11.8342 7.68631Z" fill="#999999"/>
<path d="M15.1305 5.31255L11.3939 9.15586C11.3331 9.21461 11.2843 9.28534 11.2506 9.36385C11.2168 9.44236 11.1987 9.52705 11.1974 9.61288C11.1961 9.69871 11.2116 9.78394 11.2429 9.86351C11.2742 9.94308 11.3208 10.0154 11.3798 10.0761C11.4388 10.1368 11.5091 10.1846 11.5864 10.2169C11.6638 10.2491 11.7467 10.265 11.8301 10.2636C11.9136 10.2623 11.9959 10.2437 12.0722 10.209C12.1486 10.1743 12.2173 10.1241 12.2744 10.0615L16.011 6.21822C16.0719 6.15947 16.1206 6.08873 16.1544 6.01022C16.1881 5.93171 16.2062 5.84703 16.2075 5.7612C16.2088 5.67536 16.1934 5.59013 16.162 5.51057C16.1307 5.431 16.0842 5.35872 16.0252 5.29802C15.9661 5.23732 15.8959 5.18944 15.8185 5.15721C15.7411 5.12499 15.6583 5.10908 15.5748 5.11043C15.4914 5.11179 15.4091 5.13038 15.3327 5.1651C15.2564 5.19982 15.1876 5.24996 15.1305 5.31255Z" fill="#999999"/>
<path d="M29.4847 2.20827C29.164 1.54296 28.6684 0.983405 28.0542 0.593089C27.44 0.202773 26.7318 -0.0026826 26.0098 2.64479e-05H13.9411C12.7972 0.000234633 11.6664 0.249395 10.6228 0.731135C9.57926 1.21288 8.64662 1.91629 7.88618 2.79516L2.03654 9.56133C0.704704 11.109 -0.0208952 13.1102 0.000458241 15.1769L1.0421 23.4441C1.19399 24.635 1.7231 25.7413 2.54762 26.5918C3.03784 27.0988 3.62097 27.5007 4.26324 27.7743C4.90551 28.0479 5.59416 28.1877 6.28933 28.1857H27.4014C28.0621 28.1852 28.6956 27.915 29.1627 27.4344C29.6299 26.9539 29.8926 26.3024 29.8931 25.6228V3.99534C29.8931 3.37518 29.7533 2.76347 29.4847 2.20827ZM4.83821 12.1147L10.6878 5.34857C11.0971 4.87557 11.599 4.49693 12.1605 4.23751C12.7221 3.9781 13.3306 3.84377 13.9462 3.84334H26.0108C26.0683 3.84334 26.1135 3.87289 26.1576 3.99428V14.0929H3.7863C3.94191 13.3421 4.30755 12.6545 4.83821 12.1147ZM26.7856 23.0609H4.35998C4.19477 23.0609 4.03632 22.9934 3.9195 22.8733C3.80267 22.7531 3.73704 22.5902 3.73704 22.4202C3.73704 22.2503 3.80267 22.0873 3.9195 21.9672C4.03632 21.847 4.19477 21.7795 4.35998 21.7795H26.7856C26.9509 21.7795 27.1093 21.847 27.2261 21.9672C27.3429 22.0873 27.4086 22.2503 27.4086 22.4202C27.4086 22.5902 27.3429 22.7531 27.2261 22.8733C27.1093 22.9934 26.9509 23.0609 26.7856 23.0609ZM26.7856 19.2176H23.0439C22.8787 19.2176 22.7203 19.1501 22.6034 19.03C22.4866 18.9098 22.421 18.7468 22.421 18.5769C22.421 18.407 22.4866 18.244 22.6034 18.1238C22.7203 18.0037 22.8787 17.9362 23.0439 17.9362H26.7856C26.9509 17.9362 27.1093 18.0037 27.2261 18.1238C27.3429 18.244 27.4086 18.407 27.4086 18.5769C27.4086 18.7468 27.3429 18.9098 27.2261 19.03C27.1093 19.1501 26.9509 19.2176 26.7856 19.2176Z" fill="#999999"/>
</svg>
