<svg width="40" height="49" viewBox="0 0 40 49" fill="none" xmlns="http://www.w3.org/2000/svg">
<mask id="path-1-inside-1" fill="white">
<path fill-rule="evenodd" clip-rule="evenodd" d="M19.7775 48.1205C19.7775 48.1205 39.0652 35.262 39.0652 20.2604C39.0652 15.145 37.0331 10.2391 33.416 6.62191C29.7988 3.00475 24.8929 0.972656 19.7775 0.972656C14.662 0.972656 9.7561 3.00475 6.13894 6.62191C2.52178 10.2391 0.489685 15.145 0.489685 20.2604C0.489685 35.262 19.7775 48.1205 19.7775 48.1205ZM26.2067 20.2603C26.2067 23.8111 23.3282 26.6896 19.7775 26.6896C16.2267 26.6896 13.3482 23.8111 13.3482 20.2603C13.3482 16.7095 16.2267 13.8311 19.7775 13.8311C23.3282 13.8311 26.2067 16.7095 26.2067 20.2603Z"/>
</mask>
<path fill-rule="evenodd" clip-rule="evenodd" d="M19.7775 48.1205C19.7775 48.1205 39.0652 35.262 39.0652 20.2604C39.0652 15.145 37.0331 10.2391 33.416 6.62191C29.7988 3.00475 24.8929 0.972656 19.7775 0.972656C14.662 0.972656 9.7561 3.00475 6.13894 6.62191C2.52178 10.2391 0.489685 15.145 0.489685 20.2604C0.489685 35.262 19.7775 48.1205 19.7775 48.1205ZM26.2067 20.2603C26.2067 23.8111 23.3282 26.6896 19.7775 26.6896C16.2267 26.6896 13.3482 23.8111 13.3482 20.2603C13.3482 16.7095 16.2267 13.8311 19.7775 13.8311C23.3282 13.8311 26.2067 16.7095 26.2067 20.2603Z" fill="#EC2028"/>
<path d="M19.7775 48.1205L18.6681 49.7846C19.3399 50.2325 20.2151 50.2325 20.8869 49.7846L19.7775 48.1205ZM33.416 6.62191L34.8302 5.2077L34.8302 5.2077L33.416 6.62191ZM6.13894 6.62191L7.55316 8.03613L7.55316 8.03613L6.13894 6.62191ZM37.0652 20.2604C37.0652 26.9573 32.7118 33.4348 27.9694 38.4406C25.6392 40.9004 23.3021 42.9136 21.5453 44.3124C20.6685 45.0106 19.9403 45.5526 19.4353 45.9174C19.1828 46.0997 18.9864 46.2376 18.8553 46.3283C18.7898 46.3737 18.7407 46.4073 18.7091 46.4287C18.6933 46.4395 18.6818 46.4472 18.675 46.4518C18.6715 46.4541 18.6692 46.4557 18.6681 46.4565C18.6675 46.4568 18.6672 46.457 18.6672 46.457C18.6672 46.457 18.6674 46.4569 18.6674 46.4569C18.6677 46.4567 18.6681 46.4564 19.7775 48.1205C20.8869 49.7846 20.8874 49.7843 20.888 49.7839C20.8883 49.7837 20.8889 49.7833 20.8895 49.7829C20.8907 49.7821 20.8921 49.7811 20.8939 49.7799C20.8974 49.7776 20.9021 49.7745 20.9079 49.7705C20.9196 49.7627 20.9358 49.7517 20.9565 49.7377C20.9979 49.7096 21.0571 49.6691 21.1328 49.6166C21.2843 49.5117 21.5023 49.3587 21.7772 49.1601C22.3269 48.7631 23.1056 48.1833 24.037 47.4416C25.8967 45.9607 28.3816 43.8217 30.8733 41.1916C35.7748 36.0178 41.0652 28.5651 41.0652 20.2604H37.0652ZM32.0018 8.03613C35.2438 11.2782 37.0652 15.6754 37.0652 20.2604H41.0652C41.0652 14.6146 38.8224 9.19993 34.8302 5.2077L32.0018 8.03613ZM19.7775 2.97266C24.3625 2.97266 28.7597 4.79404 32.0018 8.03613L34.8302 5.2077C30.838 1.21547 25.4233 -1.02734 19.7775 -1.02734V2.97266ZM7.55316 8.03613C10.7952 4.79404 15.1925 2.97266 19.7775 2.97266V-1.02734C14.1316 -1.02734 8.71696 1.21547 4.72473 5.2077L7.55316 8.03613ZM2.48969 20.2604C2.48969 15.6754 4.31107 11.2782 7.55316 8.03613L4.72473 5.2077C0.732497 9.19993 -1.51031 14.6146 -1.51031 20.2604H2.48969ZM19.7775 48.1205C20.8869 46.4564 20.8872 46.4567 20.8875 46.4569C20.8875 46.4569 20.8877 46.457 20.8877 46.457C20.8877 46.457 20.8874 46.4568 20.8869 46.4565C20.8857 46.4557 20.8834 46.4541 20.88 46.4518C20.8731 46.4472 20.8617 46.4395 20.8459 46.4287C20.8142 46.4073 20.7651 46.3737 20.6996 46.3283C20.5685 46.2376 20.3721 46.0997 20.1197 45.9174C19.6146 45.5526 18.8864 45.0106 18.0096 44.3124C16.2529 42.9136 13.9158 40.9004 11.5855 38.4406C6.8431 33.4348 2.48969 26.9573 2.48969 20.2604H-1.51031C-1.51031 28.5651 3.78015 36.0178 8.68167 41.1916C11.1733 43.8217 13.6582 45.9607 15.5179 47.4416C16.4493 48.1833 17.228 48.7631 17.7777 49.1601C18.0527 49.3587 18.2706 49.5117 18.4221 49.6166C18.4979 49.6691 18.557 49.7096 18.5984 49.7377C18.6191 49.7517 18.6353 49.7627 18.647 49.7705C18.6528 49.7745 18.6575 49.7776 18.661 49.7799C18.6628 49.7811 18.6643 49.7821 18.6654 49.7829C18.666 49.7833 18.6667 49.7837 18.667 49.7839C18.6675 49.7843 18.6681 49.7846 19.7775 48.1205ZM19.7775 28.6896C24.4328 28.6896 28.2067 24.9157 28.2067 20.2603H24.2067C24.2067 22.7065 22.2237 24.6896 19.7775 24.6896V28.6896ZM11.3482 20.2603C11.3482 24.9157 15.1221 28.6896 19.7775 28.6896V24.6896C17.3313 24.6896 15.3482 22.7065 15.3482 20.2603H11.3482ZM19.7775 11.8311C15.1221 11.8311 11.3482 15.605 11.3482 20.2603H15.3482C15.3482 17.8141 17.3313 15.8311 19.7775 15.8311V11.8311ZM28.2067 20.2603C28.2067 15.605 24.4328 11.8311 19.7775 11.8311V15.8311C22.2237 15.8311 24.2067 17.8141 24.2067 20.2603H28.2067Z" fill="white" mask="url(#path-1-inside-1)"/>
</svg>
