<svg width="31" height="28" viewBox="0 0 31 28" fill="none" xmlns="http://www.w3.org/2000/svg">
<path d="M1.12303 5.81135C0.762127 6.16898 0.47631 6.59889 0.283212 7.07455C0.0901134 7.55021 -0.00616894 8.06152 0.000306204 8.57693V23.1374C-0.00616894 23.6528 0.0901134 24.1641 0.283212 24.6398C0.47631 25.1154 0.762127 25.5453 1.12303 25.903C1.47073 26.2742 1.8887 26.5682 2.35115 26.7668C2.81359 26.9654 3.31071 27.0644 3.81181 27.0578H4.90066V4.65656H3.81181C3.31071 4.6499 2.81359 4.74893 2.35115 4.94755C1.8887 5.14616 1.47073 5.44014 1.12303 5.81135Z" fill="#999999"/>
<path d="M21.7794 1.85723C21.7803 1.63637 21.7388 1.4175 21.6571 1.21324C21.5754 1.00899 21.4551 0.823391 21.3034 0.667165C21.1516 0.510939 20.9712 0.387173 20.7727 0.303006C20.5741 0.218839 20.3614 0.175936 20.1466 0.176774H10.3459C10.1311 0.175796 9.91822 0.218595 9.71957 0.3027C9.52092 0.386805 9.34044 0.510546 9.18854 0.666786C9.03664 0.823027 8.91633 1.00867 8.83456 1.21299C8.75279 1.41732 8.71118 1.63628 8.71213 1.85723V4.65765H6.53442V27.0578H23.9581V4.65659H21.7804L21.7794 1.85723ZM19.6017 4.65765H10.8898V2.41668H19.6017V4.65765Z" fill="#999999"/>
<path d="M29.3686 5.81134C29.0208 5.44018 28.6029 5.14624 28.1404 4.94763C27.678 4.74902 27.1809 4.64996 26.6798 4.65656H25.5909V27.0578H26.6798C27.6888 27.0517 28.6549 26.6367 29.3684 25.9028C30.0819 25.1689 30.4854 24.1752 30.4913 23.1374V8.57692C30.4977 8.06152 30.4014 7.55022 30.2083 7.07458C30.0152 6.59893 29.7294 6.16901 29.3686 5.81134Z" fill="#999999"/>
</svg>
