<svg width="26" height="24" viewBox="0 0 26 24" fill="none" xmlns="http://www.w3.org/2000/svg">
<path fill-rule="evenodd" clip-rule="evenodd" d="M13.2761 0.274807C13.6441 -0.0915119 14.2409 -0.0915119 14.609 0.274807L25.7239 11.3368C26.092 11.7031 26.092 12.297 25.7239 12.6633L14.609 23.7253C14.2409 24.0916 13.6441 24.0916 13.2761 23.7253C12.908 23.3589 12.908 22.765 13.2761 22.3987L23.7246 12.0001L13.2761 1.60136C12.908 1.23504 12.908 0.641125 13.2761 0.274807Z" fill="#999999"/>
<path fill-rule="evenodd" clip-rule="evenodd" d="M0.276055 0.274807C0.644129 -0.0915119 1.2409 -0.0915119 1.60897 0.274807L12.7239 11.3368C13.092 11.7031 13.092 12.297 12.7239 12.6633L1.60897 23.7253C1.2409 24.0916 0.644132 24.0916 0.276057 23.7253C-0.0920173 23.3589 -0.0920173 22.765 0.276057 22.3987L10.7246 12.0001L0.276055 1.60136C-0.0920201 1.23504 -0.0920201 0.641125 0.276055 0.274807Z" fill="#999999"/>
</svg>
